<svg width="88" height="88" xmlns="http://www.w3.org/2000/svg">

 <g>
  <title>Layer 1</title>
  <path id="svg_1" d="m6,77.01702l14,0l0,-34l-20,-15l0,43c0,3.32 2.69,6 6,6" fill="#4285f4"/>
  <path id="svg_2" d="m68,77.01702l14,0c3.32,0 6,-2.69 6,-6l0,-43l-20,15" fill="#34a853"/>
  <path id="svg_3" d="m68,17.01702l0,26l20,-15l0,-8c0,-7.42 -8.47,-11.65 -14.4,-7.2" fill="#fbbc04"/>
  <path id="svg_4" d="m20,43.01702l0,-26l24,18l24,-18l0,26l-24,18" fill="#ea4335"/>
  <path id="svg_5" d="m0,20.01702l0,8l20,15l0,-26l-5.6,-4.2c-5.94,-4.45 -14.4,-0.22 -14.4,7.2" fill="#c5221f"/>
 </g>
</svg>